{"title":"Green Lantern 2011 Cam.Xvid","uid":6478041,"size":522768158,"categoryP":"video","categoryS":"movies","magnet":"?xt=urn:btih:1062e981c9aa7cc55243b53e7d8fa1f5a46dc697&amp;dn=Green+Lantern+2011+Cam.Xvid&amp;tr=udp%3A%2F%2Ftracker.openbittorrent.com%3A80&amp;tr=udp%3A%2F%2Fopen.demonii.com%3A1337&amp;tr=udp%3A%2F%2Ftracker.coppersurfer.tk%3A6969&amp;tr=udp%3A%2F%2Fexodus.desync.com%3A6969","seeders":1,"leechers":0,"uploader":"tykoon123","files":2,"time":1308393575,"description":"cover image: &lt;a href=&quot;\nhttp://s1.postimage.org/m4zypqyp4/coverimage.jpg&quot; rel=&quot;nofollow&quot; target=&quot;_NEW&quot;&gt;\nhttp://s1.postimage.org/m4zypqyp4/coverimage.jpg&lt;/a&gt;\n\nPlot:\nA test pilot is granted a mystical green ring that bestows him with otherworldly powers, as well as membership into an intergalactic squadron tasked with keeping peace within the universe.\n\nGeneral\nFormat : Flash Video\nFile size : 499 MiB\nDuration : 1h 44mn\nOverall bit rate : 669 Kbps\nTagging application : Yet Another Metadata Injector for FLV - Version 1.5\n\nVideo\nFormat : H.263\nCodec ID : 2\nCodec ID/Hint : Sorenson\nDuration : 1h 44mn\nBit rate : 583 Kbps\nWidth : 360 pixels\nHeight : 240 pixels\nDisplay aspect ratio : 3:2\nFrame rate mode : Constant\nFrame rate : 23.000 fps\nBit depth : 8 bits\nCompression mode : Lossy\nBits/(Pixel*Frame) : 0.293\nStream size : 446 MiB (90%)\n\nAudio\nFormat : MPEG Audio\nFormat version : Version 1\nFormat profile : Layer 3\nMode : Joint stereo\nMode extension : MS Stereo\nCodec ID : 2\nCodec ID/Hint : MP3\nDuration : 1h 44mn\nBit rate mode : Constant\nBit rate : 64.0 Kbps\nChannel(s) : 2 channels\nSampling rate : 44.1 KHz\nCompression mode : Lossy\nDelay relative to video : -43ms\nStream size : 50.4 MiB (10%)\n\nScreenshots:\n","torrent":{"xt":"urn:btih:1062e981c9aa7cc55243b53e7d8fa1f5a46dc697","amp;dn":"Green+Lantern+2011+Cam.Xvid","amp;tr":["udp%3A%2F%2Ftracker.openbittorrent.com%3A80","udp%3A%2F%2Fopen.demonii.com%3A1337","udp%3A%2F%2Ftracker.coppersurfer.tk%3A6969","udp%3A%2F%2Fexodus.desync.com%3A6969"],"infoHash":"1062e981c9aa7cc55243b53e7d8fa1f5a46dc697","infoHashBuffer":{"type":"Buffer","data":[16,98,233,129,201,170,124,197,82,67,181,62,125,143,161,245,164,109,198,151]},"announce":[],"urlList":[]}}